<svg xmlns="http://www.w3.org/2000/svg" viewBox="0 0 244.34 122.46" xmlns:v="https://vecta.io/nano"><style>.A{isolation:isolate}</style><path class="A" d="M0,0H28.21V76.71c0,16.51,7.91,22.7,26.66,22.7h5.67c18.75,0,26.66-6.19,26.66-22.7V0h28.21V75.85c0,31.48-16,46.61-54.35,46.61H54.52C16,122.46,0,107.33,0,75.85Z" fill="#f4dbb0"/><g class="A"><path d="M126.88 21.91V.12h4.4c2.51 0 3.47.37 4.5 2.38l7.1 14.08c.21.37.31.5.65.5h.21l-.52-6.08V.12h5v21.79h-4.4c-2.55 0-3.48-.37-4.5-2.38l-7.1-14.08c-.19-.37-.31-.5-.65-.5h-.22l.55 6.05v10.91zM164.7.12c5.18 0 7.78 2.29 7.78 6.79v1.24c.06 4.46-2.6 6.79-7.78 6.79h-7.07v7h-5.09V.12zm-7.07 4.12v6.57h6.91c2.05 0 2.86-.77 2.86-2.57V6.81c0-1.83-.84-2.57-2.86-2.57zm35.25 17.67H181.5c-3.85 0-5.71-1.86-5.71-5.61V.12h5.09V15.9c0 1.43.53 1.89 2.14 1.89h8a1.28 1.28 0 0 1 1.46 1.21zM194.77.12h5.08V14c0 3 1.43 4.09 4.81 4.09h1c3.38 0 4.81-1.12 4.81-4.09V.12h5.08v13.67c0 5.67-2.88 8.4-9.8 8.4h-1.18c-6.94 0-9.82-2.73-9.82-8.4zm44.83 9.55c1 0 1.39.4 1.39 1.39v10.85h-2.45c-.8 0-1.15-.24-1.33-.9l-.37-1.42h-.19c-1.18 1.8-3 2.6-5.86 2.6h-2c-6.79 0-9.83-2.6-9.83-8.4V8.4c0-5.74 3-8.28 9.83-8.28h11.37L239.78 3a1.28 1.28 0 0 1-1.49 1.24h-9.42c-3.44 0-4.81 1.15-4.81 4.09V14c0 2.94 1.37 4.09 4.81 4.09h2.54c3.47 0 4.87-1.09 4.87-3.91v-.62h-2.92A1.21 1.21 0 0 1 232 12.4l-.41-2.73z" fill="#ef4771"/><path d="M126.88 67.91V46.12h4.4c2.51 0 3.47.37 4.5 2.38l7.1 14.08c.21.37.31.5.65.5h.21l-.52-6.08V46.12h5v21.79h-4.4c-2.55 0-3.48-.37-4.5-2.38l-7.1-14.08c-.19-.37-.31-.5-.65-.5h-.22l.55 6.05v10.91zm38.69-21.79c4.49 0 6.72 2 6.72 5.49v.83a3.9 3.9 0 0 1-2.54 3.82v.21c2.27.53 3.47 2.14 3.47 4.68v1.09c0 3.22-1.95 5.67-7.13 5.67h-13.55V46.12zm-7.94 8.71h7.66c1.45 0 2.14-.62 2.14-1.95v-.69c0-1.33-.69-1.95-2.14-1.95h-7.66zm8.25 9c1.61 0 2.26-.65 2.26-2v-1.11c0-1.33-.65-2-2.26-2h-8.25v5.08zm19.53 4.36c-6.95 0-9.74-2.94-9.74-8.65v-5c0-5.71 2.79-8.65 9.74-8.65h4c6.95 0 9.74 2.94 9.74 8.65v5c0 5.71-2.79 8.65-9.74 8.65zm3.9-4.15c3.63 0 4.71-1.37 4.71-4.34v-5.37c0-3-1.08-4.34-4.71-4.34h-3.84c-3.63 0-4.72 1.37-4.72 4.34v5.37c0 3 1.09 4.34 4.72 4.34zM208 57.25c.21-.31.21-.37 0-.71l-7.85-10.42h4.65c1.15 0 1.49.15 2 .9l3.41 4.77 1.3 2.26h.16l1.33-2.26 3.5-4.79c.53-.75.87-.9 2.05-.9h4.37l-7.78 10.35c-.22.31-.22.37 0 .69l8.09 10.75h-4.71a2 2 0 0 1-2-.9l-3.66-5.11-1.33-2.23h-.16l-1.3 2.23L206.3 67a2 2 0 0 1-2 .9h-4.43z" fill="#2ac5f4"/><path d="M126.88 113.91V92.12h4.4c2.51 0 3.47.37 4.5 2.38l7.1 14.08c.21.37.31.5.65.5h.21l-.52-6.08V92.12h5v21.79h-4.4c-2.55 0-3.48-.37-4.5-2.38l-7.1-14.08c-.19-.37-.31-.5-.65-.5h-.22l.53 6.08v10.88zm23.8-21.79h3.82c1.08 0 1.52.28 1.8 1.21l3.53 11.28.62 3.13h.22l.62-3.13L165 93.05c.19-.56.37-.81.84-.93a3.2 3.2 0 0 1 .65-.07h2.17a3.29 3.29 0 0 1 .65.07c.46.12.65.37.84.93l3.85 11.66.59 2.79a.09.09 0 0 0 .18 0l.62-2.79 3.57-11.38c.28-.93.71-1.21 1.8-1.21h3.81l-7.1 21.95h-3.13c-1.58 0-2.08-.37-2.51-1.71L168.45 102l-.74-3.13h-.19l-.74 3.13-3.35 10.35c-.44 1.34-.93 1.71-2.51 1.71h-3.14zm41.42 21.79H187V92.12h5.08zm4.34 0V92.12h4.4c2.51 0 3.48.37 4.5 2.38l7.1 14.08c.22.37.31.5.65.5h.22l-.53-6.08V92.12h5v21.79h-4.4c-2.54 0-3.47-.37-4.5-2.38l-7.1-14.08c-.18-.37-.31-.5-.65-.5h-.21l.52 6.08v10.88zm38.07-21.79c7 0 9.83 2.73 9.83 8.4v5c0 5.68-2.88 8.4-9.83 8.4h-12.4v-21.8zm-7.32 4.12v13.55h7.26c3.28 0 4.8-1.15 4.8-4.09v-5.37c0-2.94-1.52-4.09-4.8-4.09z" fill="#a3cd39"/></g></svg>